{
  "accessors": [
    {
      "bufferView": 2,
      "componentType": 5126,
      "count": 608,
      "max": [
        7.313616752624512,
        0.34706830978393555,
        7.290375709533691
      ],
      "min": [
        -7.3136162757873535,
        -0.0290664155036211,
        -7.178642749786377
      ],
      "type": "VEC3"
    },
    {
      "bufferView": 2,
      "byteOffset": 7296,
      "componentType": 5126,
      "count": 608,
      "max": [
        0.9684891104698181,
        0.9983794689178467,
        0.9943352937698364
      ],
      "min": [
        -0.9686722159385681,
        -0.9731554985046387,
        -0.9933185577392578
      ],
      "type": "VEC3"
    },
    {
      "bufferView": 1,
      "componentType": 5126,
      "count": 608,
      "max": [
        0.9213517308235168,
        0.8446388244628906
      ],
      "min": [
        0.01210418064147234,
        0.5311794281005859
      ],
      "type": "VEC2"
    },
    {
      "bufferView": 0,
      "componentType": 5125,
      "count": 3312,
      "type": "SCALAR"
    },
    {
      "bufferView": 2,
      "byteOffset": 14592,
      "componentType": 5126,
      "count": 3379,
      "max": [
        7.483868598937988,
        22.99942398071289,
        7.269901275634766
      ],
      "min": [
        -7.48386812210083,
        -0.008651835843920708,
        -9.680707931518555
      ],
      "type": "VEC3"
    },
    {
      "bufferView": 2,
      "byteOffset": 55140,
      "componentType": 5126,
      "count": 3379,
      "max": [
        1.0,
        1.0,
        1.0
      ],
      "min": [
        -1.0,
        -1.0,
        -1.0
      ],
      "type": "VEC3"
    },
    {
      "bufferView": 1,
      "byteOffset": 4864,
      "componentType": 5126,
      "count": 3379,
      "max": [
        0.9826695919036865,
        0.9951171875
      ],
      "min": [
        0.0048828125,
        0.015482226386666298
      ],
      "type": "VEC2"
    },
    {
      "bufferView": 0,
      "byteOffset": 13248,
      "componentType": 5125,
      "count": 17796,
      "type": "SCALAR"
    },
    {
      "bufferView": 2,
      "byteOffset": 95688,
      "componentType": 5126,
      "count": 712,
      "max": [
        6.785353183746338,
        21.889326095581055,
        -7.4711761474609375
      ],
      "min": [
        -6.785353183746338,
        14.593456268310547,
        -9.672886848449707
      ],
      "type": "VEC3"
    },
    {
      "bufferView": 2,
      "byteOffset": 104232,
      "componentType": 5126,
      "count": 712,
      "max": [
        0.999596893787384,
        0.9991095066070557,
        0.9991096258163452
      ],
      "min": [
        -0.9995969533920288,
        -0.9991099834442139,
        -0.9991096258163452
      ],
      "type": "VEC3"
    },
    {
      "bufferView": 1,
      "byteOffset": 31896,
      "componentType": 5126,
      "count": 712,
      "max": [
        0.6657946705818176,
        0.3698819875717163
      ],
      "min": [
        0.4093970060348511,
        0.015482226386666298
      ],
      "type": "VEC2"
    },
    {
      "bufferView": 0,
      "byteOffset": 84432,
      "componentType": 5125,
      "count": 3528,
      "type": "SCALAR"
    },
    {
      "bufferView": 2,
      "byteOffset": 112776,
      "componentType": 5126,
      "count": 819,
      "max": [
        7.30909538269043,
        24.46343231201172,
        7.209020614624023
      ],
      "min": [
        -7.308587074279785,
        11.383393287658691,
        -9.846778869628906
      ],
      "type": "VEC3"
    },
    {
      "bufferView": 2,
      "byteOffset": 122604,
      "componentType": 5126,
      "count": 819,
      "max": [
        0.9999012351036072,
        0.9999988675117493,
        0.9999593496322632
      ],
      "min": [
        -0.9999001026153564,
        -0.9768050312995911,
        -0.9995285868644714
      ],
      "type": "VEC3"
    },
    {
      "bufferView": 1,
      "byteOffset": 37592,
      "componentType": 5126,
      "count": 819,
      "max": [
        0.9633537530899048,
        0.9571587443351746
      ],
      "min": [
        0.03667767345905304,
        0.02608254924416542
      ],
      "type": "VEC2"
    },
    {
      "bufferView": 0,
      "byteOffset": 98544,
      "componentType": 5125,
      "count": 4704,
      "type": "SCALAR"
    }
  ],
  "asset": {
    "extras": {
      "author": "Nyabsino KMM (https://sketchfab.com/nyabsino)",
      "license": "CC-BY-4.0 (http://creativecommons.org/licenses/by/4.0/)",
      "source": "https://sketchfab.com/3d-models/interior-asset-3d-padded-chair-3bec120b381b40019fa4a41bc1415f6a",
      "title": "Interior Asset (3D): Padded Chair"
    },
    "generator": "Sketchfab-16.56.0",
    "version": "2.0"
  },
  "bufferViews": [
    {
      "buffer": 0,
      "byteLength": 117360,
      "name": "floatBufferViews",
      "target": 34963
    },
    {
      "buffer": 0,
      "byteLength": 44144,
      "byteOffset": 117360,
      "byteStride": 8,
      "name": "floatBufferViews",
      "target": 34962
    },
    {
      "buffer": 0,
      "byteLength": 132432,
      "byteOffset": 161504,
      "byteStride": 12,
      "name": "floatBufferViews",
      "target": 34962
    }
  ],
  "buffers": [
    {
      "byteLength": 293936,
      "uri": "scene.bin"
    }
  ],
  "extensionsUsed": [
    "KHR_materials_specular",
    "KHR_texture_transform"
  ],
  "images": [
    {
      "uri": "textures/footpad_shd_baseColor.jpeg"
    },
    {
      "uri": "textures/pad_shd_baseColor.jpeg"
    },
    {
      "uri": "textures/pad_shd_specularf0.png"
    }
  ],
  "materials": [
    {
      "doubleSided": true,
      "extensions": {
        "KHR_materials_specular": {
          "specularColorFactor": [
            1.0,
            1.0,
            1.0
          ],
          "specularFactor": 0.3
        }
      },
      "name": "footpad_shd",
      "pbrMetallicRoughness": {
        "baseColorFactor": [
          0.1,
          0.1,
          0.1,
          1.0
        ],
        "baseColorTexture": {
          "index": 0
        },
        "metallicFactor": 0.0,
        "roughnessFactor": 0.5
      }
    },
    {
      "doubleSided": true,
      "extensions": {
        "KHR_materials_specular": {
          "specularColorFactor": [
            1.0,
            1.0,
            1.0
          ],
          "specularFactor": 0.4
        }
      },
      "name": "frames_shd",
      "pbrMetallicRoughness": {
        "baseColorFactor": [
          0.6,
          0.6,
          0.6,
          1.0
        ],
        "baseColorTexture": {
          "index": 0
        },
        "metallicFactor": 0.5,
        "roughnessFactor": 0.1
      }
    },
    {
      "doubleSided": true,
      "extensions": {
        "KHR_materials_specular": {
          "specularColorFactor": [
            1.0,
            1.0,
            1.0
          ],
          "specularFactor": 0.2
        }
      },
      "name": "fitting_shd",
      "pbrMetallicRoughness": {
        "baseColorFactor": [
          0.8,
          0.8,
          0.8,
          1.0
        ],
        "baseColorTexture": {
          "index": 0
        },
        "metallicFactor": 0.0,
        "roughnessFactor": 0.4
      }
    },
    {
      "doubleSided": true,
      "extensions": {
        "KHR_materials_specular": {
          "specularColorFactor": [
            1.0,
            1.0,
            1.0
          ],
          "specularFactor": 0.6,
          "specularTexture": {
            "index": 2
          }
        }
      },
      "name": "pad_shd",
      "pbrMetallicRoughness": {
        "baseColorFactor": [
          0.2,
          0.2,
          0.2,
          1.0
        ],
        "baseColorTexture": {
          "extensions": {
            "KHR_texture_transform": {
              "scale": [
                5,
                5
              ]
            }
          },
          "index": 1
        },
        "metallicFactor": 0.0,
        "roughnessFactor": 0.6
      }
    }
  ],
  "meshes": [
    {
      "name": "pad_chair_footpad_shd_0",
      "primitives": [
        {
          "attributes": {
            "NORMAL": 1,
            "POSITION": 0,
            "TEXCOORD_0": 2
          },
          "indices": 3,
          "material": 0,
          "mode": 4
        }
      ]
    },
    {
      "name": "pad_chair_frames_shd_0",
      "primitives": [
        {
          "attributes": {
            "NORMAL": 5,
            "POSITION": 4,
            "TEXCOORD_0": 6
          },
          "indices": 7,
          "material": 1,
          "mode": 4
        }
      ]
    },
    {
      "name": "pad_chair_fitting_shd_0",
      "primitives": [
        {
          "attributes": {
            "NORMAL": 9,
            "POSITION": 8,
            "TEXCOORD_0": 10
          },
          "indices": 11,
          "material": 2,
          "mode": 4
        }
      ]
    },
    {
      "name": "pad_chair_pad_shd_0",
      "primitives": [
        {
          "attributes": {
            "NORMAL": 13,
            "POSITION": 12,
            "TEXCOORD_0": 14
          },
          "indices": 15,
          "material": 3,
          "mode": 4
        }
      ]
    }
  ],
  "nodes": [
    {
      "children": [
        1
      ],
      "matrix": [
        1.0,
        0.0,
        0.0,
        0.0,
        0.0,
        2.220446049250313e-16,
        -1.0,
        0.0,
        0.0,
        1.0,
        2.220446049250313e-16,
        0.0,
        0.0,
        0.0,
        0.0,
        1.0
      ],
      "name": "Sketchfab_model"
    },
    {
      "children": [
        2
      ],
      "matrix": [
        0.009999999776482582,
        0.0,
        0.0,
        0.0,
        0.0,
        0.0,
        0.009999999776482582,
        0.0,
        0.0,
        -0.009999999776482582,
        0.0,
        0.0,
        0.0,
        0.0,
        0.0,
        1.0
      ],
      "name": "0061a79f06564062ba85d7ad4bad2c76.fbx"
    },
    {
      "children": [
        3
      ],
      "name": "RootNode"
    },
    {
      "children": [
        4,
        5,
        6,
        7
      ],
      "name": "pad_chair"
    },
    {
      "mesh": 0,
      "name": "pad_chair_footpad_shd_0"
    },
    {
      "mesh": 1,
      "name": "pad_chair_frames_shd_0"
    },
    {
      "mesh": 2,
      "name": "pad_chair_fitting_shd_0"
    },
    {
      "mesh": 3,
      "name": "pad_chair_pad_shd_0"
    }
  ],
  "samplers": [
    {
      "magFilter": 9729,
      "minFilter": 9987,
      "wrapS": 10497,
      "wrapT": 10497
    }
  ],
  "scene": 0,
  "scenes": [
    {
      "name": "Sketchfab_Scene",
      "nodes": [
        0
      ]
    }
  ],
  "textures": [
    {
      "sampler": 0,
      "source": 0
    },
    {
      "sampler": 0,
      "source": 1
    },
    {
      "sampler": 0,
      "source": 2
    }
  ]
}
